<svg xmlns="http://www.w3.org/2000/svg" width="900" height="560" viewBox="0 0 900 560">
  <defs>
    <pattern id="grid" width="20" height="20" patternUnits="userSpaceOnUse">
      <path d="M 20 0 L 0 0 0 20" fill="none" stroke="#e5e7eb" stroke-width="0.6"/>
    </pattern>
    <marker id="arrow" markerWidth="10" markerHeight="10" refX="9" refY="3" orient="auto">
      <polygon points="0 0, 10 3, 0 6" fill="#64748b"/>
    </marker>
  </defs>
  <rect width="900" height="560" fill="url(#grid)"/>
  <text x="450" y="30" font-size="24" font-weight="bold" text-anchor="middle" fill="#1f2937">Database Choice Cheat Sheet</text>
  <rect x="360" y="60" width="180" height="55" rx="10" fill="#fff7ed" stroke="#ea580c" stroke-width="2"/>
  <text x="450" y="88" font-size="15" font-weight="bold" text-anchor="middle" fill="#9a3412">Start Here</text>
  <text x="450" y="105" font-size="12" text-anchor="middle" fill="#7c2d12">Data + Query + Scale</text>
  <rect x="80" y="165" width="220" height="72" rx="10" fill="#eff6ff" stroke="#2563eb" stroke-width="2"/>
  <text x="190" y="190" font-size="14" font-weight="bold" text-anchor="middle" fill="#1d4ed8">Structured Data?</text>
  <text x="190" y="210" font-size="12" text-anchor="middle" fill="#1e40af">Users</text>
  <text x="190" y="226" font-size="12" text-anchor="middle" fill="#1e40af">Payments</text>
  <rect x="340" y="165" width="220" height="72" rx="10" fill="#ecfdf5" stroke="#059669" stroke-width="2"/>
  <text x="450" y="190" font-size="14" font-weight="bold" text-anchor="middle" fill="#047857">Need ACID?</text>
  <text x="450" y="210" font-size="12" text-anchor="middle" fill="#065f46">Money</text>
  <text x="450" y="226" font-size="12" text-anchor="middle" fill="#065f46">Inventory</text>
  <rect x="600" y="165" width="220" height="72" rx="10" fill="#f5f3ff" stroke="#7c3aed" stroke-width="2"/>
  <text x="710" y="190" font-size="14" font-weight="bold" text-anchor="middle" fill="#6d28d9">Flexible Schema?</text>
  <text x="710" y="210" font-size="12" text-anchor="middle" fill="#5b21b6">Catalog</text>
  <text x="710" y="226" font-size="12" text-anchor="middle" fill="#5b21b6">Attributes</text>
  <path d="M 450 115 L 190 165" stroke="#64748b" stroke-width="2" fill="none" marker-end="url(#arrow)"/>
  <path d="M 450 115 L 450 165" stroke="#64748b" stroke-width="2" fill="none" marker-end="url(#arrow)"/>
  <path d="M 450 115 L 710 165" stroke="#64748b" stroke-width="2" fill="none" marker-end="url(#arrow)"/>
  <rect x="50" y="300" width="180" height="88" rx="10" fill="#dbeafe" stroke="#2563eb" stroke-width="2"/>
  <text x="140" y="325" font-size="14" font-weight="bold" text-anchor="middle" fill="#1d4ed8">RDBMS</text>
  <text x="140" y="345" font-size="12" text-anchor="middle" fill="#1e3a8a">MySQL</text>
  <text x="140" y="362" font-size="12" text-anchor="middle" fill="#1e3a8a">Postgres</text>
  <text x="140" y="379" font-size="12" text-anchor="middle" fill="#1e3a8a">Oracle</text>
  <rect x="250" y="300" width="180" height="88" rx="10" fill="#dcfce7" stroke="#16a34a" stroke-width="2"/>
  <text x="340" y="325" font-size="14" font-weight="bold" text-anchor="middle" fill="#166534">Cache / KV</text>
  <text x="340" y="345" font-size="12" text-anchor="middle" fill="#166534">Redis</text>
  <text x="340" y="362" font-size="12" text-anchor="middle" fill="#166534">Memcached</text>
  <text x="340" y="379" font-size="12" text-anchor="middle" fill="#166534">Hazelcast</text>
  <rect x="450" y="300" width="180" height="88" rx="10" fill="#ede9fe" stroke="#7c3aed" stroke-width="2"/>
  <text x="540" y="325" font-size="14" font-weight="bold" text-anchor="middle" fill="#6d28d9">Document DB</text>
  <text x="540" y="345" font-size="12" text-anchor="middle" fill="#5b21b6">MongoDB</text>
  <text x="540" y="362" font-size="12" text-anchor="middle" fill="#5b21b6">Couchbase</text>
  <text x="540" y="379" font-size="12" text-anchor="middle" fill="#5b21b6">Flexible fields</text>
  <rect x="650" y="300" width="180" height="88" rx="10" fill="#fee2e2" stroke="#dc2626" stroke-width="2"/>
  <text x="740" y="325" font-size="14" font-weight="bold" text-anchor="middle" fill="#b91c1c">Columnar DB</text>
  <text x="740" y="345" font-size="12" text-anchor="middle" fill="#991b1b">Cassandra</text>
  <text x="740" y="362" font-size="12" text-anchor="middle" fill="#991b1b">HBase</text>
  <text x="740" y="379" font-size="12" text-anchor="middle" fill="#991b1b">Append-heavy data</text>
  <path d="M 190 237 L 140 300" stroke="#64748b" stroke-width="2" fill="none" marker-end="url(#arrow)"/>
  <path d="M 450 237 L 140 300" stroke="#64748b" stroke-width="2" fill="none" marker-end="url(#arrow)"/>
  <path d="M 190 237 L 340 300" stroke="#64748b" stroke-width="2" fill="none" marker-end="url(#arrow)"/>
  <path d="M 710 237 L 540 300" stroke="#64748b" stroke-width="2" fill="none" marker-end="url(#arrow)"/>
  <path d="M 710 237 L 740 300" stroke="#64748b" stroke-width="2" fill="none" marker-end="url(#arrow)"/>
  <rect x="90" y="440" width="220" height="82" rx="10" fill="#fef3c7" stroke="#d97706" stroke-width="2"/>
  <text x="200" y="465" font-size="14" font-weight="bold" text-anchor="middle" fill="#92400e">Search Engine</text>
  <text x="200" y="485" font-size="12" text-anchor="middle" fill="#92400e">Elasticsearch</text>
  <text x="200" y="502" font-size="12" text-anchor="middle" fill="#92400e">Solr</text>
  <rect x="340" y="440" width="220" height="82" rx="10" fill="#cffafe" stroke="#0891b2" stroke-width="2"/>
  <text x="450" y="465" font-size="14" font-weight="bold" text-anchor="middle" fill="#0e7490">Time Series DB</text>
  <text x="450" y="485" font-size="12" text-anchor="middle" fill="#155e75">OpenTSDB</text>
  <text x="450" y="502" font-size="12" text-anchor="middle" fill="#155e75">InfluxDB</text>
  <rect x="590" y="440" width="220" height="82" rx="10" fill="#ecfccb" stroke="#65a30d" stroke-width="2"/>
  <text x="700" y="465" font-size="14" font-weight="bold" text-anchor="middle" fill="#4d7c0f">Blob Storage</text>
  <text x="700" y="485" font-size="12" text-anchor="middle" fill="#4d7c0f">S3</text>
  <text x="700" y="502" font-size="12" text-anchor="middle" fill="#4d7c0f">CDN</text>
  <text x="200" y="545" font-size="11" text-anchor="middle" fill="#374151">Text + fuzzy search</text>
  <text x="450" y="545" font-size="11" text-anchor="middle" fill="#374151">Metrics + time-range reads</text>
  <text x="700" y="545" font-size="11" text-anchor="middle" fill="#374151">Images + video + files</text>
</svg>