<svg xmlns="http://www.w3.org/2000/svg" width="920" height="520" viewBox="0 0 920 520">
  <defs>
    <pattern id="grid" width="20" height="20" patternUnits="userSpaceOnUse">
      <path d="M 20 0 L 0 0 0 20" fill="none" stroke="#e5e7eb" stroke-width="0.6"/>
    </pattern>
    <marker id="arrow" markerWidth="10" markerHeight="10" refX="9" refY="3" orient="auto">
      <polygon points="0 0, 10 3, 0 6" fill="#64748b"/>
    </marker>
  </defs>
  <rect width="920" height="520" fill="url(#grid)"/>
  <text x="460" y="30" font-size="24" font-weight="bold" text-anchor="middle" fill="#1f2937">Hotel Booking System</text>
  <rect x="40" y="80" width="140" height="70" rx="10" fill="#fff7ed" stroke="#ea580c" stroke-width="2"/>
  <text x="110" y="108" font-size="14" font-weight="bold" text-anchor="middle" fill="#9a3412">Hotel UI</text>
  <text x="110" y="128" font-size="12" text-anchor="middle" fill="#7c2d12">Manage Property</text>
  <rect x="220" y="80" width="140" height="70" rx="10" fill="#eff6ff" stroke="#2563eb" stroke-width="2"/>
  <text x="290" y="108" font-size="14" font-weight="bold" text-anchor="middle" fill="#1d4ed8">Hotel</text>
  <text x="290" y="128" font-size="12" text-anchor="middle" fill="#1e40af">Service</text>
  <rect x="410" y="60" width="140" height="60" rx="10" fill="#dcfce7" stroke="#16a34a" stroke-width="2"/>
  <text x="480" y="86" font-size="14" font-weight="bold" text-anchor="middle" fill="#166534">MySQL</text>
  <text x="480" y="104" font-size="12" text-anchor="middle" fill="#166534">Hotel DB</text>
  <rect x="410" y="135" width="140" height="60" rx="10" fill="#fde68a" stroke="#d97706" stroke-width="2"/>
  <text x="480" y="161" font-size="14" font-weight="bold" text-anchor="middle" fill="#92400e">CDN</text>
  <text x="480" y="179" font-size="12" text-anchor="middle" fill="#92400e">Images</text>
  <rect x="600" y="80" width="120" height="70" rx="10" fill="#ecfdf5" stroke="#059669" stroke-width="2"/>
  <text x="660" y="108" font-size="14" font-weight="bold" text-anchor="middle" fill="#047857">Kafka</text>
  <text x="660" y="128" font-size="12" text-anchor="middle" fill="#065f46">Updates</text>
  <rect x="760" y="80" width="140" height="70" rx="10" fill="#ede9fe" stroke="#7c3aed" stroke-width="2"/>
  <text x="830" y="108" font-size="14" font-weight="bold" text-anchor="middle" fill="#6d28d9">Search</text>
  <text x="830" y="128" font-size="12" text-anchor="middle" fill="#5b21b6">Elasticsearch</text>
  <rect x="60" y="250" width="140" height="70" rx="10" fill="#fee2e2" stroke="#dc2626" stroke-width="2"/>
  <text x="130" y="278" font-size="14" font-weight="bold" text-anchor="middle" fill="#b91c1c">User UI</text>
  <text x="130" y="298" font-size="12" text-anchor="middle" fill="#991b1b">Search + Book</text>
  <rect x="245" y="250" width="150" height="70" rx="10" fill="#eff6ff" stroke="#0f766e" stroke-width="2"/>
  <text x="320" y="278" font-size="14" font-weight="bold" text-anchor="middle" fill="#115e59">Search Service</text>
  <text x="320" y="298" font-size="12" text-anchor="middle" fill="#134e4a">Filters</text>
  <rect x="440" y="250" width="150" height="70" rx="10" fill="#fef3c7" stroke="#ca8a04" stroke-width="2"/>
  <text x="515" y="278" font-size="14" font-weight="bold" text-anchor="middle" fill="#854d0e">Booking</text>
  <text x="515" y="298" font-size="12" text-anchor="middle" fill="#92400e">Service</text>
  <rect x="625" y="235" width="120" height="60" rx="10" fill="#dbeafe" stroke="#1d4ed8" stroke-width="2"/>
  <text x="685" y="261" font-size="14" font-weight="bold" text-anchor="middle" fill="#1d4ed8">MySQL</text>
  <text x="685" y="279" font-size="12" text-anchor="middle" fill="#1e3a8a">Bookings</text>
  <rect x="625" y="315" width="120" height="60" rx="10" fill="#fce7f3" stroke="#db2777" stroke-width="2"/>
  <text x="685" y="341" font-size="14" font-weight="bold" text-anchor="middle" fill="#be185d">Redis</text>
  <text x="685" y="359" font-size="12" text-anchor="middle" fill="#9d174d">TTL Hold</text>
  <rect x="780" y="315" width="120" height="60" rx="10" fill="#e0f2fe" stroke="#0284c7" stroke-width="2"/>
  <text x="840" y="341" font-size="14" font-weight="bold" text-anchor="middle" fill="#0369a1">Payment</text>
  <text x="840" y="359" font-size="12" text-anchor="middle" fill="#075985">Service</text>
  <rect x="625" y="415" width="180" height="62" rx="10" fill="#ecfccb" stroke="#65a30d" stroke-width="2"/>
  <text x="715" y="441" font-size="14" font-weight="bold" text-anchor="middle" fill="#4d7c0f">Cassandra</text>
  <text x="715" y="459" font-size="12" text-anchor="middle" fill="#4d7c0f">Historical Bookings</text>
  <path d="M 180 115 L 220 115" stroke="#64748b" stroke-width="2" fill="none" marker-end="url(#arrow)"/>
  <path d="M 360 95 L 410 90" stroke="#64748b" stroke-width="2" fill="none" marker-end="url(#arrow)"/>
  <path d="M 360 135 L 410 165" stroke="#64748b" stroke-width="2" fill="none" marker-end="url(#arrow)"/>
  <path d="M 550 100 L 600 115" stroke="#64748b" stroke-width="2" fill="none" marker-end="url(#arrow)"/>
  <path d="M 720 115 L 760 115" stroke="#64748b" stroke-width="2" fill="none" marker-end="url(#arrow)"/>
  <path d="M 200 285 L 245 285" stroke="#64748b" stroke-width="2" fill="none" marker-end="url(#arrow)"/>
  <path d="M 395 285 L 440 285" stroke="#64748b" stroke-width="2" fill="none" marker-end="url(#arrow)"/>
  <path d="M 590 270 L 625 265" stroke="#64748b" stroke-width="2" fill="none" marker-end="url(#arrow)"/>
  <path d="M 590 300 L 625 345" stroke="#64748b" stroke-width="2" fill="none" marker-end="url(#arrow)"/>
  <path d="M 745 345 L 780 345" stroke="#64748b" stroke-width="2" fill="none" marker-end="url(#arrow)"/>
  <path d="M 690 375 L 690 415" stroke="#64748b" stroke-width="2" fill="none" marker-end="url(#arrow)"/>
  <text x="517" y="230" font-size="11" text-anchor="middle" fill="#475569">reserve room</text>
  <text x="685" y="392" font-size="11" text-anchor="middle" fill="#475569">expire unpaid hold</text>
</svg>