<svg xmlns="http://www.w3.org/2000/svg" width="980" height="560" viewBox="0 0 980 560">
  <defs>
    <pattern id="grid" width="20" height="20" patternUnits="userSpaceOnUse">
      <path d="M 20 0 L 0 0 0 20" fill="none" stroke="#e5e7eb" stroke-width="0.6"/>
    </pattern>
    <marker id="arrow" markerWidth="10" markerHeight="10" refX="9" refY="3" orient="auto">
      <polygon points="0 0, 10 3, 0 6" fill="#64748b"/>
    </marker>
  </defs>
  <rect width="980" height="560" fill="url(#grid)"/>
  <text x="490" y="30" font-size="24" font-weight="bold" text-anchor="middle" fill="#1f2937">Amazon-Style Commerce Flow</text>
  <rect x="35" y="80" width="145" height="70" rx="10" fill="#fff7ed" stroke="#ea580c" stroke-width="2"/>
  <text x="107" y="107" font-size="14" font-weight="bold" text-anchor="middle" fill="#9a3412">Suppliers</text>
  <text x="107" y="127" font-size="12" text-anchor="middle" fill="#7c2d12">Catalog Feed</text>
  <rect x="215" y="80" width="125" height="70" rx="10" fill="#ecfdf5" stroke="#059669" stroke-width="2"/>
  <text x="277" y="107" font-size="14" font-weight="bold" text-anchor="middle" fill="#047857">Kafka</text>
  <text x="277" y="127" font-size="12" text-anchor="middle" fill="#065f46">Inbound</text>
  <rect x="375" y="50" width="145" height="70" rx="10" fill="#ede9fe" stroke="#7c3aed" stroke-width="2"/>
  <text x="447" y="78" font-size="14" font-weight="bold" text-anchor="middle" fill="#6d28d9">Item Service</text>
  <text x="447" y="98" font-size="12" text-anchor="middle" fill="#5b21b6">MongoDB</text>
  <rect x="375" y="140" width="145" height="70" rx="10" fill="#dbeafe" stroke="#2563eb" stroke-width="2"/>
  <text x="447" y="168" font-size="14" font-weight="bold" text-anchor="middle" fill="#1d4ed8">Search Index</text>
  <text x="447" y="188" font-size="12" text-anchor="middle" fill="#1e40af">Elasticsearch</text>
  <rect x="560" y="80" width="145" height="70" rx="10" fill="#fef3c7" stroke="#ca8a04" stroke-width="2"/>
  <text x="632" y="107" font-size="14" font-weight="bold" text-anchor="middle" fill="#854d0e">Search</text>
  <text x="632" y="127" font-size="12" text-anchor="middle" fill="#92400e">Service</text>
  <rect x="740" y="80" width="195" height="70" rx="10" fill="#fee2e2" stroke="#dc2626" stroke-width="2"/>
  <text x="837" y="107" font-size="14" font-weight="bold" text-anchor="middle" fill="#b91c1c">Serviceability + TAT</text>
  <text x="837" y="127" font-size="12" text-anchor="middle" fill="#991b1b">Can we deliver?</text>
  <rect x="45" y="250" width="145" height="70" rx="10" fill="#eff6ff" stroke="#0f766e" stroke-width="2"/>
  <text x="117" y="277" font-size="14" font-weight="bold" text-anchor="middle" fill="#115e59">User UI</text>
  <text x="117" y="297" font-size="12" text-anchor="middle" fill="#134e4a">Search + Buy</text>
  <rect x="235" y="250" width="130" height="70" rx="10" fill="#f0fdf4" stroke="#16a34a" stroke-width="2"/>
  <text x="300" y="277" font-size="14" font-weight="bold" text-anchor="middle" fill="#166534">Cart</text>
  <text x="300" y="297" font-size="12" text-anchor="middle" fill="#166534">Wishlist</text>
  <rect x="400" y="250" width="150" height="70" rx="10" fill="#fff7ed" stroke="#ea580c" stroke-width="2"/>
  <text x="475" y="277" font-size="14" font-weight="bold" text-anchor="middle" fill="#9a3412">Order Taking</text>
  <text x="475" y="297" font-size="12" text-anchor="middle" fill="#7c2d12">MySQL</text>
  <rect x="585" y="230" width="120" height="60" rx="10" fill="#e0f2fe" stroke="#0284c7" stroke-width="2"/>
  <text x="645" y="257" font-size="14" font-weight="bold" text-anchor="middle" fill="#0369a1">Inventory</text>
  <text x="645" y="275" font-size="12" text-anchor="middle" fill="#075985">Lock stock</text>
  <rect x="585" y="310" width="120" height="60" rx="10" fill="#fce7f3" stroke="#db2777" stroke-width="2"/>
  <text x="645" y="337" font-size="14" font-weight="bold" text-anchor="middle" fill="#be185d">Payment</text>
  <text x="645" y="355" font-size="12" text-anchor="middle" fill="#9d174d">Gateway</text>
  <rect x="755" y="250" width="150" height="70" rx="10" fill="#ecfccb" stroke="#65a30d" stroke-width="2"/>
  <text x="830" y="277" font-size="14" font-weight="bold" text-anchor="middle" fill="#4d7c0f">Cassandra</text>
  <text x="830" y="297" font-size="12" text-anchor="middle" fill="#4d7c0f">Old Orders</text>
  <rect x="330" y="430" width="320" height="85" rx="12" fill="#f8fafc" stroke="#94a3b8" stroke-width="1.5"/>
  <text x="490" y="455" font-size="14" font-weight="bold" text-anchor="middle" fill="#334155">Recommendation + Analytics</text>
  <text x="490" y="476" font-size="12" text-anchor="middle" fill="#475569">Search, cart, wishlist, and orders -&gt; Kafka -&gt; Spark -&gt; Hadoop</text>
  <text x="490" y="495" font-size="12" text-anchor="middle" fill="#475569">Output: reports, similarities, user-specific product recommendations</text>
  <path d="M 180 115 L 215 115" stroke="#64748b" stroke-width="2" fill="none" marker-end="url(#arrow)"/>
  <path d="M 340 95 L 375 85" stroke="#64748b" stroke-width="2" fill="none" marker-end="url(#arrow)"/>
  <path d="M 340 135 L 375 175" stroke="#64748b" stroke-width="2" fill="none" marker-end="url(#arrow)"/>
  <path d="M 520 175 L 560 115" stroke="#64748b" stroke-width="2" fill="none" marker-end="url(#arrow)"/>
  <path d="M 705 115 L 740 115" stroke="#64748b" stroke-width="2" fill="none" marker-end="url(#arrow)"/>
  <path d="M 190 285 L 235 285" stroke="#64748b" stroke-width="2" fill="none" marker-end="url(#arrow)"/>
  <path d="M 365 285 L 400 285" stroke="#64748b" stroke-width="2" fill="none" marker-end="url(#arrow)"/>
  <path d="M 550 275 L 585 260" stroke="#64748b" stroke-width="2" fill="none" marker-end="url(#arrow)"/>
  <path d="M 550 300 L 585 340" stroke="#64748b" stroke-width="2" fill="none" marker-end="url(#arrow)"/>
  <path d="M 550 320 L 755 285" stroke="#64748b" stroke-width="2" fill="none" marker-end="url(#arrow)"/>
  <path d="M 117 320 L 330 430" stroke="#64748b" stroke-width="2" fill="none" marker-end="url(#arrow)"/>
  <path d="M 300 320 L 390 430" stroke="#64748b" stroke-width="2" fill="none" marker-end="url(#arrow)"/>
  <path d="M 475 320 L 490 430" stroke="#64748b" stroke-width="2" fill="none" marker-end="url(#arrow)"/>
</svg>