<?xml version="1.0" encoding="UTF-8"?>
<svg xmlns="http://www.w3.org/2000/svg" width="1200" height="700" viewBox="0 0 1200 700" role="img" aria-labelledby="title desc">
  <title>Prompt Context Harness Layers</title>
  <desc>Hand-drawn style conceptual sketch with grid background and labeled flow components.</desc>
  <rect x="0" y="0" width="1200" height="700" fill="#fffdf4"/>
  <line x1="0" y1="0" x2="0" y2="700" stroke="#d9e7ff" stroke-width="1"/><line x1="50" y1="0" x2="50" y2="700" stroke="#d9e7ff" stroke-width="1"/><line x1="100" y1="0" x2="100" y2="700" stroke="#d9e7ff" stroke-width="1"/><line x1="150" y1="0" x2="150" y2="700" stroke="#d9e7ff" stroke-width="1"/><line x1="200" y1="0" x2="200" y2="700" stroke="#d9e7ff" stroke-width="1"/><line x1="250" y1="0" x2="250" y2="700" stroke="#d9e7ff" stroke-width="1"/><line x1="300" y1="0" x2="300" y2="700" stroke="#d9e7ff" stroke-width="1"/><line x1="350" y1="0" x2="350" y2="700" stroke="#d9e7ff" stroke-width="1"/><line x1="400" y1="0" x2="400" y2="700" stroke="#d9e7ff" stroke-width="1"/><line x1="450" y1="0" x2="450" y2="700" stroke="#d9e7ff" stroke-width="1"/><line x1="500" y1="0" x2="500" y2="700" stroke="#d9e7ff" stroke-width="1"/><line x1="550" y1="0" x2="550" y2="700" stroke="#d9e7ff" stroke-width="1"/><line x1="600" y1="0" x2="600" y2="700" stroke="#d9e7ff" stroke-width="1"/><line x1="650" y1="0" x2="650" y2="700" stroke="#d9e7ff" stroke-width="1"/><line x1="700" y1="0" x2="700" y2="700" stroke="#d9e7ff" stroke-width="1"/><line x1="750" y1="0" x2="750" y2="700" stroke="#d9e7ff" stroke-width="1"/><line x1="800" y1="0" x2="800" y2="700" stroke="#d9e7ff" stroke-width="1"/><line x1="850" y1="0" x2="850" y2="700" stroke="#d9e7ff" stroke-width="1"/><line x1="900" y1="0" x2="900" y2="700" stroke="#d9e7ff" stroke-width="1"/><line x1="950" y1="0" x2="950" y2="700" stroke="#d9e7ff" stroke-width="1"/><line x1="1000" y1="0" x2="1000" y2="700" stroke="#d9e7ff" stroke-width="1"/><line x1="1050" y1="0" x2="1050" y2="700" stroke="#d9e7ff" stroke-width="1"/><line x1="1100" y1="0" x2="1100" y2="700" stroke="#d9e7ff" stroke-width="1"/><line x1="1150" y1="0" x2="1150" y2="700" stroke="#d9e7ff" stroke-width="1"/><line x1="1200" y1="0" x2="1200" y2="700" stroke="#d9e7ff" stroke-width="1"/><line x1="0" y1="0" x2="1200" y2="0" stroke="#d9e7ff" stroke-width="1"/><line x1="0" y1="50" x2="1200" y2="50" stroke="#d9e7ff" stroke-width="1"/><line x1="0" y1="100" x2="1200" y2="100" stroke="#d9e7ff" stroke-width="1"/><line x1="0" y1="150" x2="1200" y2="150" stroke="#d9e7ff" stroke-width="1"/><line x1="0" y1="200" x2="1200" y2="200" stroke="#d9e7ff" stroke-width="1"/><line x1="0" y1="250" x2="1200" y2="250" stroke="#d9e7ff" stroke-width="1"/><line x1="0" y1="300" x2="1200" y2="300" stroke="#d9e7ff" stroke-width="1"/><line x1="0" y1="350" x2="1200" y2="350" stroke="#d9e7ff" stroke-width="1"/><line x1="0" y1="400" x2="1200" y2="400" stroke="#d9e7ff" stroke-width="1"/><line x1="0" y1="450" x2="1200" y2="450" stroke="#d9e7ff" stroke-width="1"/><line x1="0" y1="500" x2="1200" y2="500" stroke="#d9e7ff" stroke-width="1"/><line x1="0" y1="550" x2="1200" y2="550" stroke="#d9e7ff" stroke-width="1"/><line x1="0" y1="600" x2="1200" y2="600" stroke="#d9e7ff" stroke-width="1"/><line x1="0" y1="650" x2="1200" y2="650" stroke="#d9e7ff" stroke-width="1"/><line x1="0" y1="700" x2="1200" y2="700" stroke="#d9e7ff" stroke-width="1"/>
  <rect x="40" y="40" width="1120" height="620" rx="20" fill="none" stroke="#2b4ea2" stroke-width="4"/>
  <text x="70" y="85" font-size="32" font-weight="700" fill="#1a2f6b">Prompt Context Harness Layers</text>
  <path d="M80 610 C250 560, 400 660, 560 610 S880 560, 1080 620" fill="none" stroke="#d74f4f" stroke-width="5" marker-end="url(#arrow)"/>
  <defs>
    <marker id="arrow" markerWidth="10" markerHeight="10" refX="9" refY="3" orient="auto" markerUnits="strokeWidth">
      <path d="M0,0 L0,6 L9,3 z" fill="#d74f4f"/>
    </marker>
  </defs>
  <text x="70" y="120" font-size="20" fill="#0B1F44">Prompt Layer</text><text x="335" y="120" font-size="20" fill="#0B1F44">Persona</text><text x="600" y="120" font-size="20" fill="#0B1F44">Rules</text><text x="865" y="120" font-size="20" fill="#0B1F44">Context Layer</text><text x="70" y="205" font-size="20" fill="#0B1F44">Tools</text><text x="335" y="205" font-size="20" fill="#0B1F44">Retrieval</text><text x="600" y="205" font-size="20" fill="#0B1F44">Memory Slice</text><text x="865" y="205" font-size="20" fill="#0B1F44">Harness Layer</text><text x="70" y="290" font-size="20" fill="#0B1F44">Loop Control</text><text x="335" y="290" font-size="20" fill="#0B1F44">Acceptance Criteria</text><text x="600" y="290" font-size="20" fill="#0B1F44">Verification</text><text x="865" y="290" font-size="20" fill="#0B1F44">Scheduling</text><text x="70" y="375" font-size="20" fill="#0B1F44">Governance</text><text x="335" y="375" font-size="20" fill="#0B1F44">Observability</text><text x="600" y="375" font-size="20" fill="#0B1F44">Failure Isolation</text><text x="865" y="375" font-size="20" fill="#0B1F44">Scale Reliability</text><text x="70" y="460" font-size="20" fill="#0B1F44">Layer Synergy</text>
</svg>