<svg xmlns="http://www.w3.org/2000/svg" width="900" height="520" viewBox="0 0 900 520"><defs><pattern id="g" width="20" height="20" patternUnits="userSpaceOnUse"><path d="M 20 0 L 0 0 0 20" fill="none" stroke="#d8e3f0" stroke-width="1"/></pattern><marker id="a" markerWidth="10" markerHeight="10" refX="8" refY="3" orient="auto"><path d="M0,0 L8,3 L0,6" fill="#334155"/></marker></defs><rect width="900" height="520" fill="#fffdf6"/><rect width="900" height="520" fill="url(#g)"/><rect x="30" y="24" width="840" height="56" rx="18" fill="#e8eef8"/><text x="56" y="60" font-size="28" font-family="Verdana" fill="#334155">Landscape, Levels, and Continuum</text><rect x="75" y="118" width="190" height="88" rx="18" fill="#fde68a" stroke="#3b3b3b"/><text x="118" y="150" font-size="22">Strategic</text><text x="112" y="178" font-size="16">wide coverage</text><text x="112" y="198" font-size="16">low detail long term</text><rect x="355" y="118" width="190" height="88" rx="18" fill="#bfdbfe" stroke="#3b3b3b"/><text x="408" y="150" font-size="22">Segment</text><text x="398" y="178" font-size="16">program level</text><text x="398" y="198" font-size="16">medium detail</text><rect x="635" y="118" width="190" height="88" rx="18" fill="#bbf7d0" stroke="#3b3b3b"/><text x="679" y="150" font-size="22">Capability</text><text x="674" y="178" font-size="16">narrow scope</text><text x="668" y="198" font-size="16">highest detail</text><line x1="265" y1="162" x2="355" y2="162" stroke="#334155" stroke-width="4" marker-end="url(#a)"/><line x1="545" y1="162" x2="635" y2="162" stroke="#334155" stroke-width="4" marker-end="url(#a)"/><rect x="84" y="276" width="734" height="152" rx="20" fill="#ffffff" stroke="#58708c" stroke-width="2"/><text x="108" y="312" font-size="18">Continuum:</text><text x="108" y="340" font-size="16">Generic patterns</text><text x="108" y="363" font-size="16">Industry references</text><text x="108" y="386" font-size="16">Organization specific architecture</text><text x="398" y="340" font-size="16">Breadth drives grouping</text><text x="398" y="363" font-size="16">Depth changes by need</text><text x="398" y="386" font-size="16">Time horizon expands with breadth</text><text x="630" y="340" font-size="16">Reuse reduces redundancy</text><text x="630" y="363" font-size="16">Specific can be generalized later</text><text x="630" y="386" font-size="16">Landscape is built over many projects</text></svg>