<svg xmlns="http://www.w3.org/2000/svg" width="900" height="520" viewBox="0 0 900 520"><defs><pattern id="g" width="20" height="20" patternUnits="userSpaceOnUse"><path d="M 20 0 L 0 0 0 20" fill="none" stroke="#d8e3f0" stroke-width="1"/></pattern><marker id="a" markerWidth="10" markerHeight="10" refX="8" refY="3" orient="auto"><path d="M0,0 L8,3 L0,6" fill="#374151"/></marker></defs><rect width="900" height="520" fill="#fffdf6"/><rect width="900" height="520" fill="url(#g)"/><rect x="26" y="24" width="848" height="58" rx="18" fill="#eef2f7"/><text x="46" y="60" font-size="28" font-family="Verdana" fill="#374151">Repository, Governance, Security, and Exam Prep</text><rect x="50" y="116" width="170" height="84" rx="18" fill="#dbeafe" stroke="#3b3b3b"/><text x="84" y="148" font-size="20">Repository</text><text x="74" y="176" font-size="16">landscape standards</text><rect x="250" y="116" width="170" height="84" rx="18" fill="#dcfce7" stroke="#3b3b3b"/><text x="290" y="148" font-size="20">Governance</text><text x="282" y="176" font-size="16">contracts reviews</text><rect x="450" y="116" width="170" height="84" rx="18" fill="#fee2e2" stroke="#3b3b3b"/><text x="498" y="148" font-size="20">Security</text><text x="480" y="176" font-size="16">cross-domain risk</text><rect x="650" y="116" width="170" height="84" rx="18" fill="#fef3c7" stroke="#3b3b3b"/><text x="695" y="148" font-size="20">Exam</text><text x="676" y="176" font-size="16">TOGAF reasoning</text><line x1="220" y1="158" x2="250" y2="158" stroke="#374151" stroke-width="4" marker-end="url(#a)"/><line x1="420" y1="158" x2="450" y2="158" stroke="#374151" stroke-width="4" marker-end="url(#a)"/><line x1="620" y1="158" x2="650" y2="158" stroke="#374151" stroke-width="4" marker-end="url(#a)"/><rect x="72" y="266" width="756" height="168" rx="20" fill="#ffffff" stroke="#58708c" stroke-width="2"/><text x="98" y="302" font-size="18">Integration notes:</text><text x="98" y="330" font-size="16">Repository is the architecture memory system</text><text x="98" y="353" font-size="16">Views answer stakeholder concerns</text><text x="98" y="376" font-size="16">Compliance reviews test alignment to architecture</text><text x="98" y="399" font-size="16">Security services span all architecture domains</text><text x="520" y="330" font-size="16">Use standards before inventing new rules</text><text x="520" y="353" font-size="16">Find the ADM phase in exam scenarios</text><text x="520" y="376" font-size="16">Remove the distractor before ranking best answers</text><text x="520" y="399" font-size="16">Choose the answer most faithful to TOGAF intent</text></svg>