<svg xmlns="http://www.w3.org/2000/svg" width="900" height="520" viewBox="0 0 900 520"><defs><pattern id="g" width="20" height="20" patternUnits="userSpaceOnUse"><path d="M 20 0 L 0 0 0 20" fill="none" stroke="#d8e3f0" stroke-width="1"/></pattern><marker id="a" markerWidth="10" markerHeight="10" refX="8" refY="3" orient="auto"><path d="M0,0 L8,3 L0,6" fill="#7c3aed"/></marker></defs><rect width="900" height="520" fill="#fffdf6"/><rect width="900" height="520" fill="url(#g)"/><rect x="28" y="22" width="844" height="60" rx="18" fill="#efe5fd"/><text x="50" y="61" font-size="28" font-family="Verdana" fill="#7c3aed">Phase C Information Systems Architecture</text><rect x="70" y="120" width="200" height="88" rx="18" fill="#dcfce7" stroke="#3b3b3b"/><text x="129" y="152" font-size="22">Business</text><text x="107" y="180" font-size="16">capability changes</text><text x="109" y="200" font-size="16">drive information needs</text><rect x="350" y="120" width="180" height="88" rx="18" fill="#dbeafe" stroke="#3b3b3b"/><text x="405" y="152" font-size="22">Data</text><text x="384" y="180" font-size="16">entities components</text><text x="385" y="200" font-size="16">rest motion use</text><rect x="610" y="120" width="190" height="88" rx="18" fill="#fee2e2" stroke="#3b3b3b"/><text x="648" y="152" font-size="22">Applications</text><text x="646" y="180" font-size="16">logical physical</text><text x="645" y="200" font-size="16">services interfaces</text><line x1="270" y1="164" x2="350" y2="164" stroke="#7c3aed" stroke-width="4" marker-end="url(#a)"/><line x1="530" y1="164" x2="610" y2="164" stroke="#7c3aed" stroke-width="4" marker-end="url(#a)"/><rect x="78" y="272" width="746" height="164" rx="20" fill="#ffffff" stroke="#58708c" stroke-width="2"/><text x="102" y="308" font-size="18">Information-system notes:</text><text x="102" y="336" font-size="16">Data and application architecture can run in parallel</text><text x="102" y="359" font-size="16">Data principles can require sharing and consistency</text><text x="102" y="382" font-size="16">Use logical components before locking products</text><text x="102" y="405" font-size="16">Migration and governance issues appear early</text><text x="510" y="336" font-size="16">Application communication diagrams show interfaces</text><text x="510" y="359" font-size="16">Logical data models support developers and designers</text><text x="510" y="382" font-size="16">Gap analysis reveals missing systems or data structures</text><text x="510" y="405" font-size="16">Repository reuse saves time and improves consistency</text></svg>