<svg xmlns="http://www.w3.org/2000/svg" width="900" height="520" viewBox="0 0 900 520"><defs><pattern id="g" width="20" height="20" patternUnits="userSpaceOnUse"><path d="M 20 0 L 0 0 0 20" fill="none" stroke="#d8e3f0" stroke-width="1"/></pattern><marker id="a" markerWidth="10" markerHeight="10" refX="8" refY="3" orient="auto"><path d="M0,0 L8,3 L0,6" fill="#215732"/></marker></defs><rect width="900" height="520" fill="#fffdf6"/><rect width="900" height="520" fill="url(#g)"/><rect x="30" y="24" width="840" height="56" rx="18" fill="#e4f5e5"/><text x="56" y="60" font-size="28" font-family="Verdana" fill="#215732">Preliminary Phase and Capability Setup</text><rect x="62" y="120" width="150" height="84" rx="18" fill="#dbeafe" stroke="#3b3b3b"/><text x="102" y="150" font-size="22">Context</text><text x="88" y="178" font-size="16">enterprise scope</text><text x="95" y="198" font-size="16">maturity target</text><rect x="252" y="120" width="150" height="84" rx="18" fill="#fde68a" stroke="#3b3b3b"/><text x="282" y="150" font-size="22">Principles</text><text x="278" y="178" font-size="16">business rules</text><text x="281" y="198" font-size="16">guiding choices</text><rect x="442" y="120" width="150" height="84" rx="18" fill="#fee2e2" stroke="#3b3b3b"/><text x="478" y="150" font-size="22">Governance</text><text x="478" y="178" font-size="16">roles</text><text x="478" y="198" font-size="16">process and control</text><rect x="632" y="120" width="150" height="84" rx="18" fill="#dcfce7" stroke="#3b3b3b"/><text x="681" y="150" font-size="22">Tools</text><text x="657" y="178" font-size="16">team model</text><text x="652" y="198" font-size="16">framework tailoring</text><line x1="212" y1="162" x2="252" y2="162" stroke="#215732" stroke-width="4" marker-end="url(#a)"/><line x1="402" y1="162" x2="442" y2="162" stroke="#215732" stroke-width="4" marker-end="url(#a)"/><line x1="592" y1="162" x2="632" y2="162" stroke="#215732" stroke-width="4" marker-end="url(#a)"/><rect x="76" y="272" width="748" height="158" rx="20" fill="#ffffff" stroke="#58708c" stroke-width="2"/><text x="102" y="308" font-size="18">Capability notes:</text><text x="102" y="336" font-size="16">Build only the capability needed now</text><text x="102" y="359" font-size="16">Define where, what, why, who, and how</text><text x="102" y="382" font-size="16">Architecture principles shape later choices</text><text x="102" y="405" font-size="16">Governance supports enterprise architecture work</text><text x="500" y="336" font-size="16">Tools support the method</text><text x="500" y="359" font-size="16">Capability can be extended later</text><text x="500" y="382" font-size="16">Setup is a means, not the end value</text><text x="500" y="405" font-size="16">Preparation prevents later confusion</text></svg>