<svg xmlns="http://www.w3.org/2000/svg" width="900" height="520" viewBox="0 0 900 520"><defs><pattern id="g" width="20" height="20" patternUnits="userSpaceOnUse"><path d="M 20 0 L 0 0 0 20" fill="none" stroke="#d8e3f0" stroke-width="1"/></pattern><marker id="a" markerWidth="10" markerHeight="10" refX="8" refY="3" orient="auto"><path d="M0,0 L8,3 L0,6" fill="#4338ca"/></marker></defs><rect width="900" height="520" fill="#fffdf6"/><rect width="900" height="520" fill="url(#g)"/><rect x="26" y="24" width="848" height="58" rx="18" fill="#ebe8fd"/><text x="50" y="60" font-size="28" font-family="Verdana" fill="#4338ca">Requirements, Iteration, and Core Techniques</text><rect x="48" y="118" width="150" height="82" rx="18" fill="#dbeafe" stroke="#3b3b3b"/><text x="73" y="148" font-size="20">Requirements</text><text x="82" y="176" font-size="16">capture and store</text><rect x="236" y="118" width="150" height="82" rx="18" fill="#dcfce7" stroke="#3b3b3b"/><text x="273" y="148" font-size="20">Impact</text><text x="262" y="176" font-size="16">assess change</text><rect x="424" y="118" width="150" height="82" rx="18" fill="#fef3c7" stroke="#3b3b3b"/><text x="456" y="148" font-size="20">Iteration</text><text x="451" y="176" font-size="16">refine by need</text><rect x="612" y="118" width="210" height="82" rx="18" fill="#fee2e2" stroke="#3b3b3b"/><text x="640" y="148" font-size="20">Techniques</text><text x="630" y="176" font-size="16">scenarios gaps trade-offs</text><line x1="198" y1="160" x2="236" y2="160" stroke="#4338ca" stroke-width="4" marker-end="url(#a)"/><line x1="386" y1="160" x2="424" y2="160" stroke="#4338ca" stroke-width="4" marker-end="url(#a)"/><line x1="574" y1="160" x2="612" y2="160" stroke="#4338ca" stroke-width="4" marker-end="url(#a)"/><rect x="74" y="268" width="752" height="168" rx="20" fill="#ffffff" stroke="#58708c" stroke-width="2"/><text x="98" y="304" font-size="18">Technique notes:</text><text x="98" y="332" font-size="16">Requirements management stays at the center of ADM</text><text x="98" y="355" font-size="16">Business scenarios clarify real business need</text><text x="98" y="378" font-size="16">Gap analysis compares baseline and target</text><text x="98" y="401" font-size="16">Trade-offs compare alternatives against criteria</text><text x="502" y="332" font-size="16">Iteration manages uncertainty and new facts</text><text x="502" y="355" font-size="16">In-scope requirements go to the specification</text><text x="502" y="378" font-size="16">Out-of-scope requirements go to the repository</text><text x="502" y="401" font-size="16">Impact assessments redirect work intelligently</text></svg>