<svg xmlns="http://www.w3.org/2000/svg" width="900" height="520" viewBox="0 0 900 520">
  <defs><pattern id="g" width="20" height="20" patternUnits="userSpaceOnUse"><path d="M 20 0 L 0 0 0 20" fill="none" stroke="#d8e3f0" stroke-width="1"/></pattern><marker id="a" markerWidth="10" markerHeight="10" refX="8" refY="3" orient="auto"><path d="M0,0 L8,3 L0,6" fill="#7a3b15"/></marker></defs>
  <rect width="900" height="520" fill="#fffdf6"/><rect width="900" height="520" fill="url(#g)"/><rect x="32" y="26" width="836" height="56" rx="18" fill="#fbe4d5"/><text x="56" y="61" font-size="28" font-family="Verdana" fill="#7a3b15">Certification Rules and Exam Tactics</text>
  <rect x="60" y="118" width="170" height="90" rx="18" fill="#fee2e2" stroke="#3b3b3b"/><text x="92" y="150" font-size="22">Scenario</text><text x="86" y="178" font-size="16">8 questions</text><text x="86" y="198" font-size="16">single choice</text>
  <rect x="280" y="118" width="170" height="90" rx="18" fill="#dbeafe" stroke="#3b3b3b"/><text x="328" y="150" font-size="22">Score</text><text x="307" y="178" font-size="16">5 3 1 0 points</text><text x="305" y="198" font-size="16">best to distractor</text>
  <rect x="500" y="118" width="170" height="90" rx="18" fill="#dcfce7" stroke="#3b3b3b"/><text x="540" y="150" font-size="22">Time</text><text x="525" y="178" font-size="16">90 minutes</text><text x="513" y="198" font-size="16">60 extra if needed</text>
  <rect x="720" y="118" width="120" height="90" rx="18" fill="#fef3c7" stroke="#3b3b3b"/><text x="742" y="150" font-size="22">Pass</text><text x="744" y="178" font-size="16">24 of 40</text><text x="748" y="198" font-size="16">60 percent</text>
  <line x1="230" y1="163" x2="280" y2="163" stroke="#7a3b15" stroke-width="4" marker-end="url(#a)"/><line x1="450" y1="163" x2="500" y2="163" stroke="#7a3b15" stroke-width="4" marker-end="url(#a)"/><line x1="670" y1="163" x2="720" y2="163" stroke="#7a3b15" stroke-width="4" marker-end="url(#a)"/>
  <rect x="72" y="272" width="752" height="172" rx="20" fill="#ffffff" stroke="#58708c" stroke-width="2"/>
  <text x="96" y="310" font-size="18">Exam hints:</text><text x="96" y="338" font-size="16">Read the question before long scenario details</text><text x="96" y="361" font-size="16">Spot the ADM phase or concern first</text><text x="96" y="384" font-size="16">Remove the distractor quickly</text><text x="96" y="407" font-size="16">Return to hard questions later</text>
  <text x="470" y="338" font-size="16">Open book uses provided PDFs</text><text x="470" y="361" font-size="16">Know the table of contents</text><text x="470" y="384" font-size="16">Weighted scoring rewards precision</text><text x="470" y="407" font-size="16">Time discipline is part of success</text>
</svg>