<svg xmlns="http://www.w3.org/2000/svg" width="900" height="520" viewBox="0 0 900 520"><defs><pattern id="g" width="20" height="20" patternUnits="userSpaceOnUse"><path d="M 20 0 L 0 0 0 20" fill="none" stroke="#d8e3f0" stroke-width="1"/></pattern><marker id="a" markerWidth="10" markerHeight="10" refX="8" refY="3" orient="auto"><path d="M0,0 L8,3 L0,6" fill="#1d4ed8"/></marker></defs><rect width="900" height="520" fill="#fffdf6"/><rect width="900" height="520" fill="url(#g)"/><rect x="28" y="24" width="844" height="58" rx="18" fill="#e4eefc"/><text x="52" y="61" font-size="28" font-family="Verdana" fill="#1d4ed8">Phase A Architecture Vision</text><rect x="55" y="116" width="150" height="84" rx="18" fill="#fee2e2" stroke="#3b3b3b"/><text x="73" y="148" font-size="20">Request for</text><text x="75" y="172" font-size="20">architecture work</text><rect x="235" y="116" width="130" height="84" rx="18" fill="#fef3c7" stroke="#3b3b3b"/><text x="272" y="148" font-size="22">Scope</text><text x="253" y="176" font-size="16">breadth depth time</text><rect x="395" y="116" width="150" height="84" rx="18" fill="#dcfce7" stroke="#3b3b3b"/><text x="422" y="148" font-size="22">Stakeholders</text><text x="424" y="176" font-size="16">concerns needs</text><rect x="575" y="116" width="130" height="84" rx="18" fill="#dbeafe" stroke="#3b3b3b"/><text x="609" y="148" font-size="22">Vision</text><text x="598" y="176" font-size="16">target summary</text><rect x="735" y="116" width="120" height="84" rx="18" fill="#e9d5ff" stroke="#3b3b3b"/><text x="749" y="148" font-size="20">Statement</text><text x="750" y="172" font-size="16">approved work</text><line x1="205" y1="158" x2="235" y2="158" stroke="#1d4ed8" stroke-width="4" marker-end="url(#a)"/><line x1="365" y1="158" x2="395" y2="158" stroke="#1d4ed8" stroke-width="4" marker-end="url(#a)"/><line x1="545" y1="158" x2="575" y2="158" stroke="#1d4ed8" stroke-width="4" marker-end="url(#a)"/><line x1="705" y1="158" x2="735" y2="158" stroke="#1d4ed8" stroke-width="4" marker-end="url(#a)"/><rect x="76" y="268" width="750" height="168" rx="20" fill="#ffffff" stroke="#58708c" stroke-width="2"/><text x="102" y="304" font-size="18">Phase A details:</text><text x="102" y="332" font-size="16">Define architecture project scope</text><text x="102" y="355" font-size="16">Identify stakeholders and concerns</text><text x="102" y="378" font-size="16">Confirm goals, drivers, and constraints</text><text x="102" y="401" font-size="16">Build communication plan and secure approval</text><text x="500" y="332" font-size="16">Use repository and principles</text><text x="500" y="355" font-size="16">Store in-scope requirements explicitly</text><text x="500" y="378" font-size="16">Out-of-scope items go to requirements repository</text><text x="500" y="401" font-size="16">Unapproved vision is only an opinion</text></svg>