<svg xmlns="http://www.w3.org/2000/svg" width="900" height="520" viewBox="0 0 900 520"><defs><pattern id="g" width="20" height="20" patternUnits="userSpaceOnUse"><path d="M 20 0 L 0 0 0 20" fill="none" stroke="#d8e3f0" stroke-width="1"/></pattern><marker id="a" markerWidth="10" markerHeight="10" refX="8" refY="3" orient="auto"><path d="M0,0 L8,3 L0,6" fill="#234e52"/></marker></defs><rect width="900" height="520" fill="#fffdf6"/><rect width="900" height="520" fill="url(#g)"/><rect x="32" y="24" width="836" height="58" rx="18" fill="#dff6f6"/><text x="56" y="61" font-size="28" font-family="Verdana" fill="#234e52">Enterprise Architecture Purpose</text><rect x="60" y="130" width="150" height="88" rx="18" fill="#fee2e2" stroke="#3b3b3b"/><text x="85" y="162" font-size="22">Baseline</text><text x="80" y="190" font-size="16">current state</text><text x="83" y="210" font-size="16">known reality</text><rect x="260" y="130" width="150" height="88" rx="18" fill="#fef3c7" stroke="#3b3b3b"/><text x="310" y="162" font-size="22">Gap</text><text x="290" y="190" font-size="16">what must change</text><text x="293" y="210" font-size="16">missing capability</text><rect x="460" y="130" width="150" height="88" rx="18" fill="#dcfce7" stroke="#3b3b3b"/><text x="494" y="162" font-size="22">Target</text><text x="485" y="190" font-size="16">future state</text><text x="483" y="210" font-size="16">approved direction</text><rect x="660" y="130" width="170" height="88" rx="18" fill="#dbeafe" stroke="#3b3b3b"/><text x="688" y="162" font-size="22">Governance</text><text x="688" y="190" font-size="16">direct change</text><text x="688" y="210" font-size="16">control drift</text><line x1="210" y1="174" x2="260" y2="174" stroke="#234e52" stroke-width="4" marker-end="url(#a)"/><line x1="410" y1="174" x2="460" y2="174" stroke="#234e52" stroke-width="4" marker-end="url(#a)"/><line x1="610" y1="174" x2="660" y2="174" stroke="#234e52" stroke-width="4" marker-end="url(#a)"/><rect x="78" y="282" width="744" height="156" rx="20" fill="#ffffff" stroke="#58708c" stroke-width="2"/><text x="100" y="318" font-size="18">Meaning:</text><text x="100" y="346" font-size="16">EA guides effective change</text><text x="100" y="369" font-size="16">All improvement creates change</text><text x="100" y="392" font-size="16">Stakeholders need one direction</text><text x="100" y="415" font-size="16">Value matters more than documents</text><text x="460" y="346" font-size="16">Governance aligns effort to value</text><text x="460" y="369" font-size="16">Risk management is part of EA</text><text x="460" y="392" font-size="16">Roadmaps connect states</text><text x="460" y="415" font-size="16">Change is the real output</text></svg>