<svg xmlns="http://www.w3.org/2000/svg" width="900" height="520" viewBox="0 0 900 520"><defs><pattern id="g" width="20" height="20" patternUnits="userSpaceOnUse"><path d="M 20 0 L 0 0 0 20" fill="none" stroke="#d8e3f0" stroke-width="1"/></pattern><marker id="a" markerWidth="10" markerHeight="10" refX="8" refY="3" orient="auto"><path d="M0,0 L8,3 L0,6" fill="#5b3a29"/></marker></defs><rect width="900" height="520" fill="#fffdf6"/><rect width="900" height="520" fill="url(#g)"/><rect x="28" y="24" width="844" height="58" rx="18" fill="#f8eadf"/><text x="54" y="61" font-size="28" font-family="Verdana" fill="#5b3a29">Architecture States and Digital Enterprise</text><rect x="55" y="118" width="130" height="76" rx="16" fill="#fee2e2" stroke="#3b3b3b"/><text x="84" y="148" font-size="20">Baseline</text><text x="82" y="172" font-size="14">current truth</text><rect x="220" y="118" width="130" height="76" rx="16" fill="#fef3c7" stroke="#3b3b3b"/><text x="246" y="148" font-size="20">Candidate</text><text x="251" y="172" font-size="14">not approved</text><rect x="385" y="118" width="130" height="76" rx="16" fill="#dcfce7" stroke="#3b3b3b"/><text x="425" y="148" font-size="20">Target</text><text x="417" y="172" font-size="14">approved future</text><rect x="550" y="118" width="130" height="76" rx="16" fill="#dbeafe" stroke="#3b3b3b"/><text x="570" y="148" font-size="20">Transition</text><text x="586" y="172" font-size="14">milestone</text><rect x="715" y="118" width="130" height="76" rx="16" fill="#e9d5ff" stroke="#3b3b3b"/><text x="749" y="148" font-size="20">Resting</text><text x="749" y="172" font-size="14">pause state</text><line x1="185" y1="156" x2="220" y2="156" stroke="#5b3a29" stroke-width="4" marker-end="url(#a)"/><line x1="350" y1="156" x2="385" y2="156" stroke="#5b3a29" stroke-width="4" marker-end="url(#a)"/><line x1="515" y1="156" x2="550" y2="156" stroke="#5b3a29" stroke-width="4" marker-end="url(#a)"/><line x1="680" y1="156" x2="715" y2="156" stroke="#5b3a29" stroke-width="4" marker-end="url(#a)"/><rect x="74" y="266" width="752" height="170" rx="20" fill="#ffffff" stroke="#58708c" stroke-width="2"/><text x="98" y="304" font-size="18">Digital contexts:</text><text x="98" y="332" font-size="16">1 founder and essential product concerns</text><text x="98" y="355" font-size="16">2 team and lightweight product operations</text><text x="98" y="378" font-size="16">3 teams of teams and coordination complexity</text><text x="98" y="401" font-size="16">4 enduring enterprise and governance, risk, compliance</text><text x="510" y="332" font-size="16">Transitions deliver measurable value</text><text x="510" y="355" font-size="16">Roadmaps link all states</text><text x="510" y="378" font-size="16">Change capacity limits the pace</text><text x="510" y="401" font-size="16">Not every target is a single jump</text></svg>