<svg xmlns="http://www.w3.org/2000/svg" width="900" height="520" viewBox="0 0 900 520"><defs><pattern id="g" width="20" height="20" patternUnits="userSpaceOnUse"><path d="M 20 0 L 0 0 0 20" fill="none" stroke="#d8e3f0" stroke-width="1"/></pattern><marker id="a" markerWidth="10" markerHeight="10" refX="8" refY="3" orient="auto"><path d="M0,0 L8,3 L0,6" fill="#166534"/></marker></defs><rect width="900" height="520" fill="#fffdf6"/><rect width="900" height="520" fill="url(#g)"/><rect x="26" y="22" width="848" height="60" rx="18" fill="#e7f6e9"/><text x="52" y="61" font-size="28" font-family="Verdana" fill="#166534">Phase B Business Architecture</text><rect x="50" y="118" width="150" height="84" rx="18" fill="#dbeafe" stroke="#3b3b3b"/><text x="85" y="150" font-size="20">Baseline</text><text x="86" y="178" font-size="16">current business</text><rect x="235" y="118" width="150" height="84" rx="18" fill="#dcfce7" stroke="#3b3b3b"/><text x="279" y="150" font-size="20">Target</text><text x="255" y="178" font-size="16">future business</text><rect x="420" y="118" width="150" height="84" rx="18" fill="#fde68a" stroke="#3b3b3b"/><text x="457" y="150" font-size="20">Gaps</text><text x="446" y="178" font-size="16">missing change</text><rect x="605" y="118" width="180" height="84" rx="18" fill="#fee2e2" stroke="#3b3b3b"/><text x="636" y="150" font-size="20">Candidate roadmap</text><text x="644" y="178" font-size="16">work to target</text><line x1="200" y1="160" x2="235" y2="160" stroke="#166534" stroke-width="4" marker-end="url(#a)"/><line x1="385" y1="160" x2="420" y2="160" stroke="#166534" stroke-width="4" marker-end="url(#a)"/><line x1="570" y1="160" x2="605" y2="160" stroke="#166534" stroke-width="4" marker-end="url(#a)"/><rect x="76" y="268" width="750" height="170" rx="20" fill="#ffffff" stroke="#58708c" stroke-width="2"/><text x="100" y="304" font-size="18">Business techniques:</text><text x="100" y="332" font-size="16">Capabilities describe what the business can do</text><text x="100" y="355" font-size="16">Value streams describe how value is delivered</text><text x="100" y="378" font-size="16">Organization maps show who participates</text><text x="100" y="401" font-size="16">Business models connect strategy to architecture</text><text x="520" y="332" font-size="16">Use the same detail level for good gap analysis</text><text x="520" y="355" font-size="16">Resolve impacts across the whole landscape</text><text x="520" y="378" font-size="16">Formal stakeholder review is essential</text><text x="520" y="401" font-size="16">Unapproved business architecture cannot govern later work</text></svg>