<svg xmlns="http://www.w3.org/2000/svg" width="900" height="520" viewBox="0 0 900 520"><defs><pattern id="g" width="20" height="20" patternUnits="userSpaceOnUse"><path d="M 20 0 L 0 0 0 20" fill="none" stroke="#d8e3f0" stroke-width="1"/></pattern><marker id="a" markerWidth="10" markerHeight="10" refX="8" refY="3" orient="auto"><path d="M0,0 L8,3 L0,6" fill="#92400e"/></marker></defs><rect width="900" height="520" fill="#fffdf6"/><rect width="900" height="520" fill="url(#g)"/><rect x="28" y="24" width="844" height="56" rx="18" fill="#f8ecd9"/><text x="54" y="60" font-size="28" font-family="Verdana" fill="#92400e">Phase D Technology Architecture</text><rect x="70" y="118" width="180" height="84" rx="18" fill="#dbeafe" stroke="#3b3b3b"/><text x="102" y="150" font-size="20">Business data app</text><text x="111" y="178" font-size="16">domain needs</text><rect x="340" y="118" width="180" height="84" rx="18" fill="#dcfce7" stroke="#3b3b3b"/><text x="379" y="150" font-size="20">Technology</text><text x="365" y="178" font-size="16">building blocks</text><rect x="610" y="118" width="180" height="84" rx="18" fill="#fee2e2" stroke="#3b3b3b"/><text x="635" y="150" font-size="20">New opportunity</text><text x="640" y="178" font-size="16">technology change</text><line x1="250" y1="160" x2="340" y2="160" stroke="#92400e" stroke-width="4" marker-end="url(#a)"/><line x1="520" y1="160" x2="610" y2="160" stroke="#92400e" stroke-width="4" marker-end="url(#a)"/><rect x="78" y="270" width="744" height="166" rx="20" fill="#ffffff" stroke="#58708c" stroke-width="2"/><text x="102" y="306" font-size="18">Technology insights:</text><text x="102" y="334" font-size="16">Technology supports business, data, and applications</text><text x="102" y="357" font-size="16">Emerging technology can drive business change</text><text x="102" y="380" font-size="16">Portfolio catalogs support lifecycle visibility</text><text x="102" y="403" font-size="16">Platform decomposition shows support structure</text><text x="500" y="334" font-size="16">Standards reduce platform chaos</text><text x="500" y="357" font-size="16">Rapid tech shifts can create discontinuities</text><text x="500" y="380" font-size="16">Reuse repository references and services</text><text x="500" y="403" font-size="16">Technology can enable innovation, not just delivery</text></svg>