<svg xmlns="http://www.w3.org/2000/svg" width="900" height="520" viewBox="0 0 900 520"><defs><pattern id="g" width="20" height="20" patternUnits="userSpaceOnUse"><path d="M 20 0 L 0 0 0 20" fill="none" stroke="#d8e3f0" stroke-width="1"/></pattern><marker id="a" markerWidth="10" markerHeight="10" refX="8" refY="3" orient="auto"><path d="M0,0 L8,3 L0,6" fill="#9a3412"/></marker></defs><rect width="900" height="520" fill="#fffdf6"/><rect width="900" height="520" fill="url(#g)"/><rect x="28" y="24" width="844" height="56" rx="18" fill="#f9eadf"/><text x="50" y="60" font-size="28" font-family="Verdana" fill="#9a3412">Phases G and H Governance and Change</text><rect x="58" y="118" width="160" height="82" rx="18" fill="#dbeafe" stroke="#3b3b3b"/><text x="86" y="148" font-size="20">Approved target</text><text x="99" y="176" font-size="16">architecture</text><rect x="258" y="118" width="160" height="82" rx="18" fill="#dcfce7" stroke="#3b3b3b"/><text x="295" y="148" font-size="20">Contract</text><text x="284" y="176" font-size="16">scope and fit</text><rect x="458" y="118" width="160" height="82" rx="18" fill="#fef3c7" stroke="#3b3b3b"/><text x="481" y="148" font-size="20">Compliance</text><text x="499" y="176" font-size="16">review</text><rect x="658" y="118" width="160" height="82" rx="18" fill="#fee2e2" stroke="#3b3b3b"/><text x="683" y="148" font-size="20">Change request</text><text x="698" y="176" font-size="16">or update</text><line x1="218" y1="160" x2="258" y2="160" stroke="#9a3412" stroke-width="4" marker-end="url(#a)"/><line x1="418" y1="160" x2="458" y2="160" stroke="#9a3412" stroke-width="4" marker-end="url(#a)"/><line x1="618" y1="160" x2="658" y2="160" stroke="#9a3412" stroke-width="4" marker-end="url(#a)"/><rect x="74" y="270" width="752" height="168" rx="20" fill="#ffffff" stroke="#58708c" stroke-width="2"/><text x="98" y="306" font-size="18">Governance notes:</text><text x="98" y="334" font-size="16">Phase G runs alongside implementation projects</text><text x="98" y="357" font-size="16">Architecture contracts connect design to delivery</text><text x="98" y="380" font-size="16">Post implementation updates create the new baseline</text><text x="98" y="403" font-size="16">Phase H is the holding phase for change management</text><text x="500" y="334" font-size="16">Assess deviations, do not hide them</text><text x="500" y="357" font-size="16">Classify change as minor, incremental, or re-architecting</text><text x="500" y="380" font-size="16">Approved change can start a new ADM cycle</text><text x="500" y="403" font-size="16">Value realization continues after deployment</text></svg>