<svg xmlns="http://www.w3.org/2000/svg" width="900" height="520" viewBox="0 0 900 520"><defs><pattern id="g" width="20" height="20" patternUnits="userSpaceOnUse"><path d="M 20 0 L 0 0 0 20" fill="none" stroke="#d8e3f0" stroke-width="1"/></pattern><marker id="a" markerWidth="10" markerHeight="10" refX="8" refY="3" orient="auto"><path d="M0,0 L8,3 L0,6" fill="#0f766e"/></marker></defs><rect width="900" height="520" fill="#fffdf6"/><rect width="900" height="520" fill="url(#g)"/><rect x="28" y="24" width="844" height="56" rx="18" fill="#e0f7f4"/><text x="52" y="60" font-size="28" font-family="Verdana" fill="#0f766e">Phases E and F Delivery and Migration</text><rect x="48" y="118" width="140" height="82" rx="18" fill="#fee2e2" stroke="#3b3b3b"/><text x="88" y="148" font-size="20">Gaps</text><text x="72" y="176" font-size="16">business data app tech</text><rect x="220" y="118" width="150" height="82" rx="18" fill="#fef3c7" stroke="#3b3b3b"/><text x="250" y="148" font-size="20">Solutions</text><text x="251" y="176" font-size="16">close shortfalls</text><rect x="402" y="118" width="150" height="82" rx="18" fill="#dcfce7" stroke="#3b3b3b"/><text x="425" y="148" font-size="20">Work packages</text><text x="431" y="176" font-size="16">grouped change</text><rect x="584" y="118" width="150" height="82" rx="18" fill="#dbeafe" stroke="#3b3b3b"/><text x="603" y="148" font-size="20">Transition states</text><text x="611" y="176" font-size="16">incremental value</text><rect x="756" y="118" width="100" height="82" rx="18" fill="#e9d5ff" stroke="#3b3b3b"/><text x="776" y="148" font-size="20">Plan</text><text x="771" y="176" font-size="16">roadmap</text><line x1="188" y1="160" x2="220" y2="160" stroke="#0f766e" stroke-width="4" marker-end="url(#a)"/><line x1="370" y1="160" x2="402" y2="160" stroke="#0f766e" stroke-width="4" marker-end="url(#a)"/><line x1="552" y1="160" x2="584" y2="160" stroke="#0f766e" stroke-width="4" marker-end="url(#a)"/><line x1="734" y1="160" x2="756" y2="160" stroke="#0f766e" stroke-width="4" marker-end="url(#a)"/><rect x="76" y="266" width="748" height="168" rx="20" fill="#ffffff" stroke="#58708c" stroke-width="2"/><text x="100" y="302" font-size="18">Migration planning:</text><text x="100" y="330" font-size="16">Consolidate solutions, dependencies, and risks</text><text x="100" y="353" font-size="16">Choose greenfield, revolutionary, or evolutionary approach</text><text x="100" y="376" font-size="16">Transition architectures pace enterprise change capacity</text><text x="100" y="399" font-size="16">Value and cost shape priority</text><text x="510" y="330" font-size="16">Architecture roadmap shows progression over time</text><text x="510" y="353" font-size="16">Implementation and migration plan details delivery</text><text x="510" y="376" font-size="16">Projects must align with other management frameworks</text><text x="510" y="399" font-size="16">Lessons learned can trigger future architecture work</text></svg>